# xmcd
# Copyright (C) 1995-1998 Ti Kan
#
# Track frame offsets:
#       150
#       34967
#       50775
#       77642
#       113356
#       136735
#       152860
#
# Disc length: 2244 seconds
#
# Revision: 0
# Processed by: cddbd v1.5.2PL0 Copyright (c) Steve Scherf et al.
# Submitted via: CD-Import v1.0
#
DISCID=5208c207
DTITLE=Baffundschub - Offni Szene
DYEAR=09
DGENRE=
TTITLE0=Offni Szene1
TTITLE1=Offni Szene2
TTITLE2=Offni Szene3
TTITLE3=Offni Szene4
TTITLE4=Offni Szene5
TTITLE5=Offni Szene 6
TTITLE6=Offni Szene7
EXTD=
EXTT0=
EXTT1=
EXTT2=
EXTT3=
EXTT4=
EXTT5=
EXTT6=
PLAYORDER=
